# xmcd CD database file
#
# Track frame offsets:
#	150
#	13307
#	27817
#
# Disc length: 542 seconds
#
# Revision: 1
# Processed by: cddbd v1.5.2PL0 Copyright (c) Steve Scherf et al.
# Submitted via: CDex 1.51
#
DISCID=1b021c03
DTITLE=The Art of Giving In - The Art of Giving In
DYEAR=2009
DGENRE=Pop-Folk
TTITLE0=There Are Things
TTITLE1=Over You
TTITLE2=Those Eyes
EXTD=YEAR: 2009
EXTT0=
EXTT1=
EXTT2=
PLAYORDER=
